<svg xmlns="http://www.w3.org/2000/svg" viewBox="0 0 179.18 209.85"><defs><style>.cls-1{font-size:7.72px;font-family:Ebrima;}.cls-1,.cls-2,.cls-3{fill:#dadada;}.cls-2{font-size:23.17px;}.cls-2,.cls-3{font-family:FelixTitlingMT, Felix Titling;}.cls-3{font-size:24.82px;}.cls-4{fill:#db780f;}</style></defs><title>Recurso 8logo </title><g id="Capa_2" data-name="Capa 2"><g id="Capa_1-2" data-name="Capa 1"><text/><text/><text class="cls-1" transform="translate(70.74 125.73) scale(0.94 1)">COFFEE TO GO </text><text class="cls-2" transform="translate(15.78 131.3) rotate(-45.44) scale(0.94 1)"> </text><text class="cls-2" transform="translate(19.96 127.03) rotate(-39.82) scale(0.94 1)"> </text><text class="cls-2" transform="matrix(0.77, -0.54, 0.57, 0.82, 24.57, 123.17)"> </text><text class="cls-2" transform="translate(29.53 119.71) rotate(-30.49) scale(0.94 1)"> </text><text class="cls-2" transform="translate(34.79 116.61) rotate(-26.51) scale(0.94 1)"> </text><text class="cls-2" transform="matrix(0.87, -0.37, 0.39, 0.92, 40.24, 113.88)"> </text><text class="cls-2" transform="matrix(0.89, -0.32, 0.34, 0.94, 45.89, 111.49)"> </text><text class="cls-3" transform="matrix(0.91, -0.24, 0.25, 0.97, 51.51, 109.31)">T</text><text class="cls-3" transform="translate(63.85 105.86) rotate(-7.84) scale(0.94 1)">O</text><text class="cls-3" transform="translate(82.32 103.51) rotate(-1.77) scale(0.94 1)">S</text><text class="cls-3" transform="matrix(0.94, 0.05, -0.06, 1, 93.18, 103.1)">T</text><text class="cls-3" transform="matrix(0.93, 0.14, -0.15, 0.99, 105.05, 103.6)">A</text><text class="cls-3" transform="translate(119.65 105.58) rotate(15.87) scale(0.94 1)">O</text><path class="cls-4" d="M111.24,68.57l2.85-.72a16.66,16.66,0,0,0,5.87-3,18.85,18.85,0,0,0,5.26-6.11c1.14-2.21,1.35-4.2.61-5.58-1-1.86-3.59-2.43-6.83-1.32l-.63.21-.14.64a43.46,43.46,0,0,1-5.44,13.42Zm9.13-14.72c1.69-.45,3-.26,3.38.4.26.48.25,1.66-.63,3.39a16.45,16.45,0,0,1-4.6,5.31,19.39,19.39,0,0,1-2,1.34A46.92,46.92,0,0,0,120.37,53.85Z"/><path class="cls-4" d="M68.21,71.58C74.13,78.72,81.86,82.64,90,82.64c7.76,0,15.2-3.61,21-10.19a9.72,9.72,0,0,0,1.32,0,18.46,18.46,0,0,0,9.56-4.05c6.8-5.24,9.95-12.9,7.31-17.83h0c-1.4-2.6-4.19-3.89-7.64-3.6.07-.69.13-1.39.17-2.07a4.41,4.41,0,0,0-1.14-3.29,3.47,3.47,0,0,0-2.52-1.13H61.91a3.47,3.47,0,0,0-2.53,1.13,4.42,4.42,0,0,0-1.14,3.29C58.86,55.09,62.4,64.57,68.21,71.58ZM61.1,43.21a1.12,1.12,0,0,1,.81-.39h56.14a1.1,1.1,0,0,1,.8.39,2.08,2.08,0,0,1,.51,1.52c-.08,1.14-.19,2.31-.34,3.46l-.21,1.65,1.63-.34c3.13-.67,5.56.13,6.66,2.17h0c2,3.79-1,10.45-6.67,14.84a16.17,16.17,0,0,1-8.3,3.57,8.46,8.46,0,0,1-1.51,0L110,70l-.41.47C104.18,76.8,97.22,80.28,90,80.28c-15.27,0-28.18-15.61-29.38-35.54A2.06,2.06,0,0,1,61.1,43.21Z"/><path class="cls-4" d="M81,75.52a.59.59,0,0,0,.42-.17.6.6,0,0,0,.18-.42.62.62,0,0,0-.18-.42.59.59,0,0,0-1,.42.59.59,0,0,0,.17.42A.63.63,0,0,0,81,75.52Z"/><path class="cls-4" d="M85.5,73.27a.58.58,0,0,0,.59-.59.59.59,0,0,0-1-.42.62.62,0,0,0-.18.42.56.56,0,0,0,.18.42A.61.61,0,0,0,85.5,73.27Z"/><path class="cls-4" d="M101.45,68.09a.56.56,0,0,0,.4-.17.55.55,0,0,0,.19-.42.6.6,0,0,0-.18-.42.57.57,0,0,0-.44-.16.52.52,0,0,0-.39.16.59.59,0,0,0-.18.42.6.6,0,0,0,.17.41A.62.62,0,0,0,101.45,68.09Z"/><path class="cls-4" d="M95.62,70.77a.6.6,0,0,0,.42-.18.62.62,0,0,0,.18-.42.56.56,0,0,0-.18-.41.6.6,0,0,0-.84,0,.58.58,0,0,0-.17.41.57.57,0,0,0,.17.4A.53.53,0,0,0,95.62,70.77Z"/><path class="cls-4" d="M99.55,74.42a.67.67,0,0,0,.42-.17.61.61,0,0,0,.17-.42.6.6,0,0,0-.57-.59.57.57,0,0,0-.42.16.56.56,0,0,0-.19.43.57.57,0,0,0,.17.41A.64.64,0,0,0,99.55,74.42Z"/><path class="cls-4" d="M101.46,69.59a.52.52,0,0,0-.41.15.55.55,0,0,0-.2.43.53.53,0,0,0,.18.41.58.58,0,0,0,.41.19.63.63,0,0,0,.42-.18.59.59,0,0,0,.17-.42.56.56,0,0,0-.57-.58Z"/><path class="cls-4" d="M90.48,76a.59.59,0,0,0,.42-.17.61.61,0,0,0,.17-.43A.58.58,0,0,0,90.9,75a.63.63,0,0,0-.83,0,.59.59,0,0,0-.18.41.58.58,0,0,0,.18.43A.61.61,0,0,0,90.48,76Z"/><path class="cls-4" d="M87,78.43a.55.55,0,0,0,.41-.18.59.59,0,0,0,.17-.42.67.67,0,0,0-.16-.42.63.63,0,0,0-.85,0,.59.59,0,0,0-.16.42.58.58,0,0,0,.59.6Z"/><path class="cls-4" d="M90.59,77.85a.6.6,0,0,0-.17.43.65.65,0,0,0,.17.43.63.63,0,0,0,.42.16.58.58,0,0,0,.41-.17.61.61,0,0,0,.17-.42.64.64,0,0,0-.16-.43A.62.62,0,0,0,90.59,77.85Z"/><path class="cls-4" d="M95.19,78a.58.58,0,0,0,.41-.17.61.61,0,0,0,.17-.42.69.69,0,0,0-.16-.43.62.62,0,0,0-.84,0,.6.6,0,0,0-.17.43.65.65,0,0,0,.17.43A.63.63,0,0,0,95.19,78Z"/><path class="cls-4" d="M95.93,73.39a.64.64,0,0,0,.16.43.63.63,0,0,0,.42.16.58.58,0,0,0,.41-.17.61.61,0,0,0,.17-.42.64.64,0,0,0-.16-.43.62.62,0,0,0-.84,0A.59.59,0,0,0,95.93,73.39Z"/><path class="cls-4" d="M107.56,62.14a.6.6,0,0,0,.59-.58.62.62,0,0,0-.18-.43.56.56,0,0,0-.43-.16.54.54,0,0,0-.4.16.61.61,0,0,0-.17.43.58.58,0,0,0,.17.41A.59.59,0,0,0,107.56,62.14Z"/><path class="cls-4" d="M107.12,67.21a.58.58,0,0,0,.58-.59.54.54,0,0,0-.17-.41.58.58,0,0,0-.82,0,.63.63,0,0,0-.19.43.54.54,0,0,0,.17.4A.56.56,0,0,0,107.12,67.21Z"/><path class="cls-4" d="M105.08,72.39a.58.58,0,0,0,.4-.16.54.54,0,0,0,.2-.43.62.62,0,0,0-.18-.42.59.59,0,0,0-.44-.16.56.56,0,0,0-.39.16.61.61,0,0,0-.17.42.58.58,0,0,0,.58.59Z"/><path class="cls-4" d="M110.94,53a.56.56,0,0,0,.4-.16.53.53,0,0,0,.2-.42.58.58,0,0,0-.18-.43.63.63,0,0,0-.44-.16.61.61,0,0,0-.39.16.61.61,0,0,0-.17.43.6.6,0,0,0,.16.41A.59.59,0,0,0,110.94,53Z"/><path class="cls-4" d="M114.29,55.93a.58.58,0,0,0,.41-.17.61.61,0,0,0,.17-.43.54.54,0,0,0-.17-.4.52.52,0,0,0-.41-.18h0a.55.55,0,0,0-.41.17.59.59,0,0,0-.18.41.61.61,0,0,0,.6.6Z"/><path class="cls-4" d="M113.05,60.76a.56.56,0,0,0,.41-.19.59.59,0,0,0,.18-.41.58.58,0,0,0-.58-.58.57.57,0,0,0-.42.16.62.62,0,0,0-.18.42.53.53,0,0,0,.17.41A.59.59,0,0,0,113.05,60.76Z"/><path class="cls-4" d="M93.49,11.84a14,14,0,0,1-1.64,1.73c-.64.58-1.33,1.18-2,1.8A20.35,20.35,0,0,0,85.61,20a10.32,10.32,0,0,0-1.4,6.68,12.43,12.43,0,0,0,2.45,5.83,13.58,13.58,0,0,0,4.5,3.86c-2.08-3.23-3.43-6.75-3.24-9.88a7.45,7.45,0,0,1,1.45-4.06,22.29,22.29,0,0,1,3.54-3.54c2.71-2.3,6.53-6,6-11.15a6.53,6.53,0,0,0-1.47-3.41,8.14,8.14,0,0,0-2.65-2C93,1.46,91.28,1,89.61,0c.92,1.77,2.68,3,3.91,4.24A4.53,4.53,0,0,1,95.27,8,7.59,7.59,0,0,1,93.49,11.84Z"/><path class="cls-4" d="M80.84,33.79a14.35,14.35,0,0,1-3-6.7,7.8,7.8,0,0,1,1.95-6.22c1.57-1.75,3.71-3.46,5.21-5.75a7,7,0,0,0,1.38-4,4.36,4.36,0,0,0-2.12-3.43,4.45,4.45,0,0,1,1,3.37A6.74,6.74,0,0,1,83.57,14C82,15.84,80,17.29,78,19.32a9.68,9.68,0,0,0-2,3.83,8.77,8.77,0,0,0,0,4.29A10.76,10.76,0,0,0,80.84,33.79Z"/><path class="cls-4" d="M95.77,22.56a7.85,7.85,0,0,0-1.28,3.6,8.49,8.49,0,0,0,.5,3.7,10.29,10.29,0,0,0,4.45,5.3,16,16,0,0,1-2.68-5.81,7.14,7.14,0,0,1,1-5.49c1.05-1.58,2.84-3,4.37-4.7a9.42,9.42,0,0,0,1.9-3,5.16,5.16,0,0,0,0-3.51c-.15,2.35-1.53,3.9-3.17,5.24S97.24,20.42,95.77,22.56Z"/><path class="cls-4" d="M70.3,109.76c-21.89,3.13-36.13,9.26-36.72,9.52l1.2,2.76c.14-.06,14.54-6.25,36-9.32,19.8-2.82,49.86-3.49,80.63,9.33l1.16-2.78C121.17,106.17,90.49,106.87,70.3,109.76Z"/></g></g></svg>